<?xml version="1.0" standalone="no"?><!DOCTYPE svg PUBLIC "-//W3C//DTD SVG 1.1//EN" "http://www.w3.org/Graphics/SVG/1.1/DTD/svg11.dtd"><svg t="1738977079571" class="icon" viewBox="0 0 1024 1024" version="1.1" xmlns="http://www.w3.org/2000/svg" p-id="4235" xmlns:xlink="http://www.w3.org/1999/xlink" width="200" height="200"><path d="M902.4 454.4l-144-144a40.704 40.704 0 0 0-57.6 57.6L844.8 512l-144 144a40.704 40.704 0 0 0 57.6 57.6L902.4 569.6a81.472 81.472 0 0 0 0-115.2zM265.6 310.4L121.6 454.4a81.472 81.472 0 0 0 0 115.2l144 144a40.704 40.704 0 0 0 57.6-57.6L179.2 512l144-144a40.704 40.704 0 0 0-57.6-57.6z m109.568 544.064L570.24 147.904a40.704 40.704 0 0 1 78.528 21.632l-195.072 706.56a40.704 40.704 0 0 1-78.528-21.696z" p-id="4236" fill="#038ef8"></path></svg>